<svg width="229" height="237" viewBox="0 0 229 237" fill="none" xmlns="http://www.w3.org/2000/svg">
<g clip-path="url(#clip0_120_42)" filter="url(#filter0_d_120_42)">
<g clip-path="url(#clip1_120_42)">
<path d="M45.1892 69.5239C43.8686 67.0635 41.9863 64.9634 39.739 63.2965C37.0842 61.3268 33.9173 59.9838 30.3919 59.6338C30.362 59.631 30.3349 59.6193 30.3045 59.6165C29.4236 59.5258 28.5684 59.5833 27.7095 59.6146C32.7878 61.0371 37.2637 64.4858 39.7039 69.6215L46.9201 84.7969L51.7624 94.9796L66.6508 93.5758L69.9136 88.2793L63.067 90.0747L45.1892 69.5239Z" fill="white"/>
<path d="M104.001 82.0827L92.3187 74.8843C91.6056 74.445 90.7897 74.2161 89.9616 74.2161C89.6181 74.2161 89.2714 74.2567 88.9279 74.3376C87.7718 74.6147 86.7713 75.3385 86.1475 76.3503L75.4475 93.7197C83.2422 95.4277 89.4326 101.962 90.2247 110.343C90.3107 111.252 90.25 112.136 90.2079 113.022L105.467 88.254C106.767 86.1451 106.109 83.3823 104.001 82.0827Z" fill="white"/>
<path d="M36.6034 147.881C39.5806 144.883 41.6218 140.92 42.0494 136.385L42.2877 133.86L42.1452 133.873C41.547 133.932 40.9521 133.958 40.3615 133.958C33.1224 133.958 26.445 129.803 23.2911 123.17L8.29052 91.6294L4.40017 132.831C3.96277 137.464 5.30535 141.813 7.77041 145.354L20.0373 181.305L15.5978 213.98C14.6118 221.226 19.6863 227.896 26.9287 228.878C27.5343 228.963 28.1362 229 28.7311 229C35.2496 229 40.926 224.184 41.8269 217.547L46.6874 181.774C46.9645 179.735 46.765 177.66 46.1005 175.717L36.6034 147.881Z" fill="white"/>
<path d="M46.271 54.8839C58.7762 51.6263 66.2737 38.844 63.0157 26.3384C59.759 13.8332 46.9804 6.33569 34.4748 9.59377C21.9696 12.8509 14.4721 25.6337 17.7292 38.1389C20.9868 50.6436 33.7663 58.1406 46.271 54.8839Z" fill="white"/>
<path d="M70.3328 100.826L47.2057 103.009L32.8724 72.872C30.1797 67.2101 23.3991 64.8058 17.7559 67.4979C12.0939 70.1868 9.68965 76.9563 12.3823 82.6144L30.1246 119.92C32.0153 123.901 36.0225 126.394 40.3661 126.394C40.7208 126.394 41.0788 126.379 41.4372 126.342L72.4679 123.413C78.706 122.826 83.2852 117.29 82.6945 111.052C82.1066 104.811 76.526 100.172 70.3328 100.826Z" fill="white"/>
<path d="M224.6 132.832L219.296 76.6647C218.314 66.2648 209.018 58.5565 198.695 59.6168C191.419 60.3042 185.572 65.0657 183.009 71.4033L184.669 69.8878C192.38 62.852 204.343 63.3838 211.382 71.0953C218.425 78.8069 217.886 90.7658 210.174 97.8086L185.442 120.4L186.951 136.385C187.378 140.921 189.42 144.884 192.397 147.882L182.9 175.718C182.235 177.66 182.035 179.736 182.312 181.775L187.173 217.548C188.074 224.184 193.75 229 200.269 229C200.863 229 201.466 228.963 202.071 228.878C209.314 227.896 214.388 221.226 213.402 213.98L208.963 181.306L221.23 145.354C223.695 141.814 225.037 137.464 224.6 132.832Z" fill="white"/>
<path d="M182.729 54.8839C195.235 58.1411 208.014 50.6436 211.27 38.1384C214.528 25.6332 207.031 12.8504 194.526 9.59328C182.02 6.3352 169.242 13.8327 165.984 26.3379C162.727 38.844 170.224 51.6263 182.729 54.8839Z" fill="white"/>
<path d="M205.797 76.1955C201.572 71.5752 194.389 71.243 189.768 75.4717L165.548 97.5945H134.916C128.649 97.5945 123.571 102.672 123.571 108.94C123.571 115.207 128.649 120.286 134.916 120.286H169.95C172.783 120.286 175.512 119.226 177.603 117.316L205.073 92.2242C209.701 87.9993 210.023 80.8233 205.797 76.1955Z" fill="white"/>
<path d="M123.166 0.381994C130.157 0.381994 135.743 2.21133 139.924 5.86999C144.171 9.52866 146.294 14.69 146.294 21.354C146.294 27.4953 144.269 32.2973 140.218 35.76C136.233 39.1573 130.941 40.8887 124.342 40.954L123.852 48.304H109.152L108.662 30.076H114.542C119.573 30.076 123.395 29.4553 126.008 28.214C128.687 26.9727 130.026 24.7187 130.026 21.452C130.026 19.1653 129.405 17.3687 128.164 16.062C126.923 14.7553 125.191 14.102 122.97 14.102C120.618 14.102 118.789 14.788 117.482 16.16C116.175 17.4667 115.522 19.2633 115.522 21.55H99.744C99.6133 17.5647 100.43 13.9713 102.194 10.77C104.023 7.56866 106.702 5.05333 110.23 3.224C113.823 1.32933 118.135 0.381994 123.166 0.381994ZM116.698 73.784C113.758 73.784 111.341 72.9347 109.446 71.236C107.617 69.472 106.702 67.316 106.702 64.768C106.702 62.1547 107.617 59.966 109.446 58.202C111.341 56.438 113.758 55.556 116.698 55.556C119.573 55.556 121.925 56.438 123.754 58.202C125.649 59.966 126.596 62.1547 126.596 64.768C126.596 67.316 125.649 69.472 123.754 71.236C121.925 72.9347 119.573 73.784 116.698 73.784Z" fill="white"/>
</g>
</g>
<defs>
<filter id="filter0_d_120_42" x="0" y="0" width="229" height="237" filterUnits="userSpaceOnUse" color-interpolation-filters="sRGB">
<feFlood flood-opacity="0" result="BackgroundImageFix"/>
<feColorMatrix in="SourceAlpha" type="matrix" values="0 0 0 0 0 0 0 0 0 0 0 0 0 0 0 0 0 0 127 0" result="hardAlpha"/>
<feOffset dy="4"/>
<feGaussianBlur stdDeviation="2"/>
<feComposite in2="hardAlpha" operator="out"/>
<feColorMatrix type="matrix" values="0 0 0 0 0 0 0 0 0 0 0 0 0 0 0 0 0 0 0.25 0"/>
<feBlend mode="normal" in2="BackgroundImageFix" result="effect1_dropShadow_120_42"/>
<feBlend mode="normal" in="SourceGraphic" in2="effect1_dropShadow_120_42" result="shape"/>
</filter>
<clipPath id="clip0_120_42">
<rect width="221" height="229" fill="white" transform="translate(4)"/>
</clipPath>
<clipPath id="clip1_120_42">
<rect width="229" height="229" fill="white"/>
</clipPath>
</defs>
</svg>
