<svg xmlns="http://www.w3.org/2000/svg" xmlns:xlink="http://www.w3.org/1999/xlink" viewBox="0 0 1180 640.89"><defs><style>.cls-1{fill:#fff;}.cls-2{fill:url(#radial-gradient);}</style><radialGradient id="radial-gradient" cx="1068.32" cy="317.49" r="835.96" gradientUnits="userSpaceOnUse"><stop offset="0.01" stop-color="#fff"/><stop offset="0.04" stop-color="#c6ffff"/><stop offset="0.09" stop-color="#80ffff"/><stop offset="0.13" stop-color="#49ffff"/><stop offset="0.17" stop-color="#21ffff"/><stop offset="0.2" stop-color="#09ffff"/><stop offset="0.22" stop-color="aqua"/><stop offset="0.28" stop-color="#01f6ff" stop-opacity="0.96"/><stop offset="0.39" stop-color="#04deff" stop-opacity="0.87"/><stop offset="0.53" stop-color="#08b6ff" stop-opacity="0.71"/><stop offset="0.69" stop-color="#0e7fff" stop-opacity="0.5"/><stop offset="0.87" stop-color="#1639ff" stop-opacity="0.22"/><stop offset="1" stop-color="#1c00ff" stop-opacity="0"/></radialGradient></defs><g id="Layer_2" data-name="Layer 2"><g id="Layer_1-2" data-name="Layer 1"><path class="cls-1" d="M535.71,434.26l1.42.2c10.63,1.44,21.08,3.36,29.07,6.93,7.41,3.27,11.75,7.42,15.71,14.79,6,11.19,6.43,26.86,1,38.73-4.08,8.83-13,16.23-21.16,20.15-8.48,4.11-16.81,6.06-26.39,7.16-16.74,1.83-34.81-1.63-49.88-8.91-8.91-4.36-19.79-11.85-25.28-21.51a21.39,21.39,0,0,1,1-23c7.83-10.71,24.59-13.08,37.22-12.63,9.63.37,27,3.35,36.11,6.6,2.53.92,11.87,4.55,13.51,6.23a4.47,4.47,0,0,1,1.37,4.4c-2.09,6.4-17.61,9.76-22.09,10.44-12,1.83-18.23-2.71-31.87-8.09a46.84,46.84,0,0,0-11.35-3.12c-6.19-.59-13.67,1.14-14.86,7.91-.59,3.49,3.5,6.74,6.62,8.11A50,50,0,0,0,496.31,493c21.28.35,45.19-3.15,62.6-15.48,2.37-1.7,4.71-4.19,4.74-7.32.08-6.34-11-10.21-11-10.21-11.72-4.89-33.39-7.27-44.55-8.19-11.7-1-30.13-2.53-34.56-3.19s-9.5-1.56-13.44-3.34-7.84-5.78-9-10.22c-2-8,.56-17.8,5-24.18,11.63-16.72,38.87-23.07,59.22-25.58,19.7-2.46,51.53-2.43,70.88,7.85,3,1.59,4.52,3.09,3.89,6.28-1.26,6-5.77,9.86-11.22,11.56-5.73,1.81-17.58,2.53-22.79,2.85-23.32,1.31-51.51.62-73.72,6.69-1.74.49-4.75,1.3-5.73,2.39-3.47,3.78,6.46,4.85,8.59,5.29a8.14,8.14,0,0,0,1.41.24l49.1,5.79M397,330.26s3.8-5.69,7-10c5.79-7.87,16.27-18.77,24.15-25.52,2.41-2.06,5.26-4.39,5.26-4.39s-4.45.45-7,1c-6,1.16-14.76,7-19.15,10.77-7.23,6.19-15.19,16.26-11.59,25.2.52,1.27,1.33,3,1.33,3M437.18,341a76.25,76.25,0,0,0,32.1-9.61c9.78-5.46,24.16-16.13,22.66-28.68a10.54,10.54,0,0,0-6.46-8.55c-4.36-1.88-6.63-1.58-12.2.07a36.7,36.7,0,0,0-9.69,4.1c-11.22,6.51-27.12,20.45-35.75,31.58-2,2.62-4,5.55-5.58,7.57-1,1.23-1.78,2.38-1.68,2.68.34,1.26,12.13,1.14,16.6.84M408.07,362.4c-1.18,1.25-2.42,4.26-3.72,6.43a12.43,12.43,0,0,1-2.82,3.26c-3,2.19-5.49,2.3-8.37-.24a20.44,20.44,0,0,1-6.52-14.42c-.08-2.34.31-4.93-.13-6.9-.73-3.33-4.06-6.76-5.86-9.94a39,39,0,0,1-4-14.51c-.73-13.16,6.21-25.28,15.22-34.85a100.86,100.86,0,0,1,33.86-23.17c12.21-5.14,30.1-8.65,43.5-4,4.36,1.5,10.44,5.21,13.5,9.1a9.88,9.88,0,0,0,1.85,2.11A13.83,13.83,0,0,0,488,276a33.79,33.79,0,0,1,12.94,6.14c5.06,4.36,7.82,8.52,9.1,14.57,2.57,12.16-4.43,25.5-12.41,33.62-13.66,14-27.16,23.81-44.63,30.66-7.68,3-19.63,5.79-28.34,5-2.7-.23-5.49-.94-8.12-1.11a37.5,37.5,0,0,1-6.78-1.74c-.65-.5-1.49-.94-1.64-.77m15.61,27a13.38,13.38,0,0,1,2.06.59c6.13,2.34,8.64,8,10.16,14.24,3.49,14.45,5,46.45,5.56,59,.43,9.39.66,18.65,1.06,27.93.33,7.87,1,18.34-.68,25.71a12.11,12.11,0,0,1-4.91,7.31c-2.91,1.86-9.53,2-13.17,1.25-9-1.86-11.88-7.62-13.16-16.49-3.05-21.17-1.58-62.72.21-80.25.6-5.78,2.78-24.34,5.81-32.11,1-2.63,3.23-7.91,7.06-7.16M150.79,424.59s-13.35.94-22.54,2c-11.69,1.26-33.66,5.05-46.34,9.58-3.8,1.37-11.52,4.59-12.2,8.5-.7,4.06,1.81,7.23,4.61,10.51C75.94,457,85.1,465.85,87.66,468c10.76,9,32.59,22.84,48.67,29.57,5.51,2.28,14.65,5.55,14.65,5.55s-.68-26-.55-51.63c.06-13.53.36-26.9.36-26.9m244.79,10.35c.76,7-1,20.2-1.34,21.94-.57,4-3.6,13.28-4.1,14.41-2.45,5.63-4.86,10.25-7.41,14.85-4.38,7.88-14.79,20.37-21,25.71-23,19.86-58.55,31.18-89.07,34.91a227.74,227.74,0,0,1-66.45-1.93c-7.55-1.38-18.79-4-18.79-4s0,4.5-.32,7.66a32.35,32.35,0,0,1-1.87,6.47c-1.6,3.29-4.22,5-8,5.72-4.59.85-9.47,1.14-13.72-.68-7-2.94-9.47-9.46-10.69-17-1-6-2-16.49-2-16.49s-5.21-2.47-9.56-4.63a248.64,248.64,0,0,1-37.16-22.77C101,496.86,87.78,485.8,84.86,483c-8.17-7.76-15.53-15.49-21.13-25.4-4.35-7.74-5.6-14.62-2.29-22.83,4.56-11.43,21-20,32.18-24.95,8.24-3.64,33.85-12,44.49-13.55,5-.72,12.82-2.12,13.3-2.43a2.56,2.56,0,0,0,.48-.44c.24-.34.66-11.67.57-15.8s3-30.83,4-36.48c.53-3.06,2.84-14.83,5.21-17.93,1.54-2.08,4.28-1.92,6.51-.55,12.2,7.59,15.91,33.91,16.82,47.3.54,8.16.81,20.43.81,20.43s14-.41,22.61-.17a203.25,203.25,0,0,1,26.28,2.91c11.12,1.77,32.8,6.51,45.23,12.8,10.24,5.19,19.81,13.94,22.92,23.2,2.88,8.48,2.45,14.35-1.94,22-4.94,8.65-14.28,15.08-23.75,15.61-2.83.16-13.44-1.24-16.7-3.77a2.9,2.9,0,0,1-.29-4.06c.35-.44,5.31-3.07,8.24-4.61a19.22,19.22,0,0,0,3.82-2.7c2.44-2.15,4.62-4.51,4.38-7.27-.33-3.59-4.13-5.8-7.75-7.22-17-6.74-50.87-12.34-67.25-13.32-6.41-.37-15.52-.69-15.52-.69L188,513.56s7.54,1.44,13.48,2.4c3.41.52,17.85,1.82,21.7,1.91,29.22.78,61.84-1.84,88.66-14.5,11.77-5.55,22.58-12.44,30.75-21.78a63.22,63.22,0,0,0,14.94-46.93c-1.64-19.3-15.22-42.2-26.06-56.14-28.65-36.85-77.76-67.16-121-84.92C166.43,275.47,122.84,265,76,263.29c-12.06-.45-38.38.16-51.68,3.84-1.9.54-3.81,1.18-5.58,1.58a14.81,14.81,0,0,0-4.19,1.75,6.16,6.16,0,0,0-.66.63s.82.46,1.6.79c1.41.61,7.34,1,10.41,1.55,2.74.52,5.61,2,6.73,4s1.22,3.42-.07,5c-3,3.66-14.36,3-19.35,2.25C8,283.84,1.58,282.26.39,277.74-1,272.41,1.54,267.2,4.27,262.37c5.49-9.65,13.35-14.67,24.86-17.82a253,253,0,0,1,52.44-8.23c35-1.32,68,4.79,101.88,15.07A486.19,486.19,0,0,1,246.78,276a497.41,497.41,0,0,1,46.12,26c3.72,2.45,25.49,18.44,28.88,21.26,7.05,5.77,16.28,14.06,23,20.69,12.93,12.81,29,32.45,36.82,48,1.88,3.73,3.34,7.4,5.76,11.72a102.43,102.43,0,0,1,5,12.91c.6,2.54,1.46,6.26,1.58,6.41C394.06,424.38,395.71,432,395.58,434.94Zm439.34-20c-16.36,3.78-59.4,5.87-59.4,5.87l-5.43,17s21.51-1.85,37.16-.21c0,0,5.07-.59,5.66,5.75a99.29,99.29,0,0,1-.5,12.27s-.33,3.84-5.77,4.82c-5.89,1-46.35,2.54-46.35,2.54l-6.55,22.16s-2.44,5.13,3,3.67c5.07-1.36,47.46-9.32,53-8.17,5.92,1.47,12.46,9.35,10.57,16.54-2.25,8.92-44.57,35.89-70.33,34,0,0-13.53.88-25-17.4-10.66-17.41,4-50.38,4-50.38s-6.74-15.39-1.85-20.6c0,0,2.89-2.64,11.37-3.24l10.36-21.45s-11.81.81-18.84-7.88c-6.54-8.25-7.08-12-2.06-14.3,5.36-2.66,54.55-11.64,88.4-10.5,0,0,11.76-1.15,22,19.25,0,0,5,8.26-3.46,10.24ZM707.61,497.43c-4.34,10.2-15.8,21.1-30,14.33-14.06-6.79-36.44-52.6-36.44-52.6s-8.49-17.09-10.13-16.65c0,0-1.84-3.33-3,15.34s.22,54.83-7.19,60.54c-7,5.72-15.53,3.44-19.94-3.24-4-6.59-5.68-22.23-3.49-49.71,2.57-27.54,9-56.82,17.14-65.95s14.71-2.48,17.26-.09c0,0,10.91,9.89,28.92,38.94l3.17,5.38S680.28,471.16,682,471.1c0,0,1.33,1.25,2.53.35,1.71-.49,1-9.29,1-9.29s-3.39-29.91-18.31-80.54c0,0-2.26-6.31-.74-12.23s7.51-3.17,7.51-3.17,23.13,11.63,34.35,49.28,3.66,71.65-.74,81.93Zm248.92-22.56c-10.53,18.38-40.26,56.84-79.75,47.76-13,31.63-24,63.63-30.27,111.51,0,0-1.37,9.3-9.11,6.07-7.66-2.69-20.29-15.43-22.84-33.05C811.82,584,822.12,544.87,843.19,500c-6.15-10-10.34-24.26-6.75-44.58,0,0,5.29-37.73,43.19-71.74,0,0,4.54-3.93,7.18-2.72,2.9,1.22,1.55,13.49-.75,19.46s-19.26,35.16-19.26,35.16-10.53,19.73-7.57,35.29c19.88-30.56,65.07-92.19,93.07-72.75,9.4,6.73,13.74,21.37,13.75,37.15,0,13.85-3.34,28.58-9.52,39.61Zm-8.17-48.38s-1.56-12.15-13.44,1.23c-10.22,11.29-28.64,32.45-43.48,61.2,15.57-1.75,30.58-10.2,35.12-14.5,7.38-6.55,24.56-24.32,21.8-47.93Zm225.76-2.77h-72.39a568.68,568.68,0,0,0-9.09-73.25,5.38,5.38,0,0,0-5.29-4.41h-16.68a4.9,4.9,0,0,0-4.8,5.86,531.26,531.26,0,0,1,9.22,71.82h-69.64a5.87,5.87,0,0,0-5.88,5.86v15a5.89,5.89,0,0,0,5.88,5.89h70.64c0,3.71.08,7,.08,10.16a524,524,0,0,1-3.13,59.73,5.5,5.5,0,0,0,5.43,6.06H1094a5.85,5.85,0,0,0,5.83-5.28,556.79,556.79,0,0,0,3-60.51c0-3.11,0-6.45-.08-10.16h71.4a5.9,5.9,0,0,0,5.88-5.89v-15A5.89,5.89,0,0,0,1174.12,423.72Z"/><path class="cls-2" d="M1082.82,310.68a498.51,498.51,0,0,0-876.68-88.51,5.76,5.76,0,0,0-.69,5.13,5.94,5.94,0,0,0,3.68,3.69l13,4.38a7.7,7.7,0,0,0,2.33.37,7.21,7.21,0,0,0,6-3.19,471.9,471.9,0,0,1,390.62-207,472.42,472.42,0,0,1,435,288.38,6.81,6.81,0,0,0,6.27,4.15h15.49a5.41,5.41,0,0,0,5-7.44Z"/></g></g></svg>