<svg xmlns="http://www.w3.org/2000/svg" width="257" height="140" viewBox="0 0 257 140">
    <defs>
        <linearGradient id="w2iavwpfga" x1="14.982%" x2="84.896%" y1="92.109%" y2="24.482%">
            <stop offset="28%" stop-color="#FA1660"/>
            <stop offset="78%" stop-color="#FF6E00"/>
        </linearGradient>
    </defs>
    <g fill="none" fill-rule="evenodd">
        <g fill-rule="nonzero">
            <g>
                <g>
                    <g>
                        <path fill="#FFF" d="M256.433 33.709L238.32 33.709 238.32 15.442 228.704 15.442 228.704 33.709 210.591 33.709 210.591 43.124 228.704 43.124 228.704 61.391 238.32 61.391 238.32 43.124 256.433 43.124z" transform="translate(-451.000000, -2756.000000) translate(158.000000, 2756.000000) translate(293.000000, 0.000000) translate(0.449301, 34.431410)"/>
                        <g>
                            <path fill="url(#w2iavwpfga)" d="M153.377 27.872h-28.562c-.374 0-.561-.188-.654-.565L115.198 0l-8.786 27.307c-.094.377-.28.565-.653.565H77.19l23.061 16.952c.25.187.591.187.84 0 6.349-3.956 12.045-6.781 23.91-9.791C114.17 43.508 103.527 53.11 94.75 64.22c-.26.3-.45.654-.559 1.036l-2.521 7.814 23.061-16.853c.374-.282.56-.282.933 0l23.061 16.849-8.775-27.494c-.094-.377 0-.565.28-.752l23.147-16.949z" transform="translate(-451.000000, -2756.000000) translate(158.000000, 2756.000000) translate(293.000000, 0.000000) translate(0.449301, 34.431410)"/>
                            <path fill="#FFF" d="M177.633 20.81c4.668 0 7.655 2.447 7.655 6.497 0 4.237-2.987 7.25-7.655 7.25h-7.464V20.808h7.464zm5.882 23.352c8.029-1.036 14.658-8.004 14.658-16.855 0-11.488-7.75-17.797-20.26-17.797h-20.447v57.814h12.703v-22.88l15.215 22.88h14.751l-16.62-23.162zM81.769 9.51h-37.81v11.676h12.417v46.138h12.977V21.186h12.418L81.77 9.51zM20.073 30.7c-3.641-1.695-5.04-3.484-5.04-5.846 0-2.73 2.332-4.99 5.787-4.897 3.174.095 5.506 1.79 7.282 5.846l10.93-4.805c-2.987-7.722-9.056-12.24-18.86-12.24-10.364 0-18.019 6.868-18.019 16.1 0 6.31 2.988 11.488 10.643 15.345l7.657 3.86c4.29 2.163 6.342 3.771 6.342 6.971 0 3.39-2.8 5.846-6.348 5.846-3.828 0-7.283-2.166-8.87-7.063L0 53.207c2.608 9.51 10.363 15.065 20.447 15.065 10.923 0 19.326-7.061 19.326-17.23 0-7.816-4.108-13.088-12.417-16.952l-7.283-3.39z" transform="translate(-451.000000, -2756.000000) translate(158.000000, 2756.000000) translate(293.000000, 0.000000) translate(0.449301, 34.431410)"/>
                        </g>
                    </g>
                </g>
            </g>
        </g>
    </g>
</svg>
